<svg xmlns="http://www.w3.org/2000/svg" viewBox="0 0 480 160" width="480" height="160">
  <!-- Correct logo usage examples -->
  <rect width="480" height="160" rx="16" fill="#F8F9FC"/>

  <!-- 1: Full color on light -->
  <g transform="translate(20, 25)">
    <rect width="100" height="100" rx="12" fill="#FFFFFF" stroke="#E2E4ED" stroke-width="1"/>
    <g transform="translate(22, 22) scale(0.7)">
      <line x1="20" y1="8" x2="20" y2="72" stroke="#3B3F8C" stroke-opacity="0.25" stroke-width="1.5" stroke-linecap="round"/>
      <line x1="60" y1="8" x2="60" y2="72" stroke="#3B3F8C" stroke-opacity="0.25" stroke-width="1.5" stroke-linecap="round"/>
      <line x1="8" y1="20" x2="72" y2="20" stroke="#3B3F8C" stroke-opacity="0.25" stroke-width="1.5" stroke-linecap="round"/>
      <line x1="8" y1="60" x2="72" y2="60" stroke="#3B3F8C" stroke-opacity="0.25" stroke-width="1.5" stroke-linecap="round"/>
      <line x1="40" y1="8" x2="40" y2="72" stroke="#3B3F8C" stroke-width="2.5" stroke-linecap="round"/>
      <line x1="8" y1="40" x2="72" y2="40" stroke="#3B3F8C" stroke-width="2.5" stroke-linecap="round"/>
      <circle cx="40" cy="40" r="8" fill="#D4A843"/>
    </g>
    <text x="50" y="142" text-anchor="middle" font-family="Inter, sans-serif" font-size="9" fill="#6B7085" font-weight="500">On Light</text>
  </g>

  <!-- 2: Full color on dark -->
  <g transform="translate(135, 25)">
    <rect width="100" height="100" rx="12" fill="#1E2158"/>
    <g transform="translate(22, 22) scale(0.7)">
      <line x1="20" y1="8" x2="20" y2="72" stroke="#6366A8" stroke-opacity="0.35" stroke-width="1.5" stroke-linecap="round"/>
      <line x1="60" y1="8" x2="60" y2="72" stroke="#6366A8" stroke-opacity="0.35" stroke-width="1.5" stroke-linecap="round"/>
      <line x1="8" y1="20" x2="72" y2="20" stroke="#6366A8" stroke-opacity="0.35" stroke-width="1.5" stroke-linecap="round"/>
      <line x1="8" y1="60" x2="72" y2="60" stroke="#6366A8" stroke-opacity="0.35" stroke-width="1.5" stroke-linecap="round"/>
      <line x1="40" y1="8" x2="40" y2="72" stroke="#6366A8" stroke-width="2.5" stroke-linecap="round"/>
      <line x1="8" y1="40" x2="72" y2="40" stroke="#6366A8" stroke-width="2.5" stroke-linecap="round"/>
      <circle cx="40" cy="40" r="8" fill="#D4A843"/>
    </g>
    <text x="50" y="142" text-anchor="middle" font-family="Inter, sans-serif" font-size="9" fill="#6B7085" font-weight="500">On Dark</text>
  </g>

  <!-- 3: Monochrome white -->
  <g transform="translate(250, 25)">
    <rect width="100" height="100" rx="12" fill="#0F1117"/>
    <g transform="translate(22, 22) scale(0.7)">
      <line x1="20" y1="8" x2="20" y2="72" stroke="#FFFFFF" stroke-opacity="0.15" stroke-width="1.5" stroke-linecap="round"/>
      <line x1="60" y1="8" x2="60" y2="72" stroke="#FFFFFF" stroke-opacity="0.15" stroke-width="1.5" stroke-linecap="round"/>
      <line x1="8" y1="20" x2="72" y2="20" stroke="#FFFFFF" stroke-opacity="0.15" stroke-width="1.5" stroke-linecap="round"/>
      <line x1="8" y1="60" x2="72" y2="60" stroke="#FFFFFF" stroke-opacity="0.15" stroke-width="1.5" stroke-linecap="round"/>
      <line x1="40" y1="8" x2="40" y2="72" stroke="#FFFFFF" stroke-width="2.5" stroke-linecap="round"/>
      <line x1="8" y1="40" x2="72" y2="40" stroke="#FFFFFF" stroke-width="2.5" stroke-linecap="round"/>
      <circle cx="40" cy="40" r="8" fill="#FFFFFF"/>
    </g>
    <text x="50" y="142" text-anchor="middle" font-family="Inter, sans-serif" font-size="9" fill="#6B7085" font-weight="500">Mono White</text>
  </g>

  <!-- 4: Monochrome dark -->
  <g transform="translate(365, 25)">
    <rect width="100" height="100" rx="12" fill="#F8F9FC" stroke="#E2E4ED" stroke-width="1"/>
    <g transform="translate(22, 22) scale(0.7)">
      <line x1="20" y1="8" x2="20" y2="72" stroke="#1A1D2E" stroke-opacity="0.2" stroke-width="1.5" stroke-linecap="round"/>
      <line x1="60" y1="8" x2="60" y2="72" stroke="#1A1D2E" stroke-opacity="0.2" stroke-width="1.5" stroke-linecap="round"/>
      <line x1="8" y1="20" x2="72" y2="20" stroke="#1A1D2E" stroke-opacity="0.2" stroke-width="1.5" stroke-linecap="round"/>
      <line x1="8" y1="60" x2="72" y2="60" stroke="#1A1D2E" stroke-opacity="0.2" stroke-width="1.5" stroke-linecap="round"/>
      <line x1="40" y1="8" x2="40" y2="72" stroke="#1A1D2E" stroke-width="2.5" stroke-linecap="round"/>
      <line x1="8" y1="40" x2="72" y2="40" stroke="#1A1D2E" stroke-width="2.5" stroke-linecap="round"/>
      <circle cx="40" cy="40" r="8" fill="#1A1D2E"/>
    </g>
    <text x="50" y="142" text-anchor="middle" font-family="Inter, sans-serif" font-size="9" fill="#6B7085" font-weight="500">Mono Dark</text>
  </g>
</svg>
